<svg width="200" height="200" viewBox="0 0 200 200" fill="none" xmlns="http://www.w3.org/2000/svg">
  <!-- Top-left corner -->
  <rect x="20" y="20" width="50" height="50" rx="8" fill="#7a57d1"/>
  <rect x="30" y="30" width="30" height="30" rx="4" fill="white"/>
  <rect x="38" y="38" width="14" height="14" rx="2" fill="#7a57d1"/>

  <!-- Top-right corner -->
  <rect x="130" y="20" width="50" height="50" rx="8" fill="#7a57d1"/>
  <rect x="140" y="30" width="30" height="30" rx="4" fill="white"/>
  <rect x="148" y="38" width="14" height="14" rx="2" fill="#7a57d1"/>

  <!-- Bottom-left corner -->
  <rect x="20" y="130" width="50" height="50" rx="8" fill="#7a57d1"/>
  <rect x="30" y="140" width="30" height="30" rx="4" fill="white"/>
  <rect x="38" y="148" width="14" height="14" rx="2" fill="#7a57d1"/>

  <!-- Data patterns -->
  <rect x="80" y="80" width="40" height="40" rx="4" fill="#7a57d1"/>
  <rect x="130" y="90" width="20" height="20" rx="2" fill="#7a57d1"/>
  <rect x="90" y="130" width="20" height="20" rx="2" fill="#7a57d1"/>
  <rect x="80" y="20" width="15" height="15" rx="2" fill="#7a57d1"/>
  <rect x="100" y="20" width="15" height="15" rx="2" fill="#7a57d1"/>
  <rect x="20" y="80" width="15" height="15" rx="2" fill="#7a57d1"/>
  <rect x="20" y="100" width="15" height="15" rx="2" fill="#7a57d1"/>
  <rect x="160" y="80" width="15" height="15" rx="2" fill="#7a57d1"/>
  <rect x="130" y="160" width="15" height="15" rx="2" fill="#7a57d1"/>
  <rect x="160" y="130" width="15" height="15" rx="2" fill="#7a57d1"/>
  <rect x="160" y="160" width="15" height="15" rx="2" fill="#7a57d1"/>
</svg>
